<svg width="16" height="16" viewBox="0 0 16 16" fill="none" xmlns="http://www.w3.org/2000/svg">
<g id="Chevron Right">
<path id="Vector" d="M6.19335 4.47331C6.13154 4.53498 6.08251 4.60824 6.04906 4.68889C6.0156 4.76954 5.99838 4.85599 5.99838 4.94331C5.99838 5.03062 6.0156 5.11707 6.04906 5.19772C6.08251 5.27837 6.13154 5.35163 6.19335 5.41331L8.78001 7.99997L6.19335 10.5866C6.13162 10.6484 6.08266 10.7216 6.04926 10.8023C6.01586 10.8829 5.99866 10.9694 5.99866 11.0566C5.99866 11.1439 6.01586 11.2304 6.04926 11.311C6.08266 11.3916 6.13162 11.4649 6.19335 11.5266C6.25507 11.5884 6.32834 11.6373 6.40898 11.6707C6.48963 11.7041 6.57606 11.7213 6.66335 11.7213C6.75063 11.7213 6.83706 11.7041 6.91771 11.6707C6.99835 11.6373 7.07162 11.5884 7.13335 11.5266L10.1933 8.46664C10.2551 8.40496 10.3042 8.33171 10.3376 8.25106C10.3711 8.17041 10.3883 8.08395 10.3883 7.99664C10.3883 7.90933 10.3711 7.82287 10.3376 7.74222C10.3042 7.66158 10.2551 7.58832 10.1933 7.52664L7.13335 4.46664C6.88001 4.21331 6.45335 4.21331 6.19335 4.47331Z" fill="black"/>
</g>
</svg>
