<svg width="24" height="24" viewBox="0 0 24 24" fill="none" xmlns="http://www.w3.org/2000/svg">
<g id="Filter off ">
<path id="Vector" d="M19.79 5.61004C19.9046 5.46241 19.9755 5.28557 19.9945 5.09964C20.0135 4.91372 19.98 4.72619 19.8976 4.55841C19.8153 4.39062 19.6875 4.24933 19.5288 4.15061C19.3701 4.0519 19.1869 3.99972 19 4.00004H6.83L14.8 11.97L19.79 5.61004ZM20.49 20.49L3.51 3.51004C3.32303 3.32306 3.06943 3.21802 2.805 3.21802C2.54058 3.21802 2.28698 3.32306 2.1 3.51004C1.91303 3.69702 1.80798 3.95061 1.80798 4.21504C1.80798 4.47946 1.91303 4.73306 2.1 4.92004L10 13V18C10 19.1 10.9 20 12 20C13.1 20 14 19.1 14 18V16.83L19.07 21.9C19.46 22.29 20.09 22.29 20.48 21.9C20.87 21.51 20.88 20.88 20.49 20.49Z" fill="black"/>
</g>
</svg>
