<svg width="24" height="24" viewBox="0 0 24 24" fill="none" xmlns="http://www.w3.org/2000/svg">
<g id="Number">
<path id="Vector" d="M20.68 9.27L20.69 9.21C20.7282 9.06746 20.7331 8.91802 20.7043 8.77328C20.6755 8.62854 20.6137 8.49238 20.5238 8.37537C20.4338 8.25836 20.3182 8.16363 20.1857 8.09853C20.0532 8.03344 19.9076 7.99972 19.76 8H17L17.7 5.21C17.7362 5.06679 17.7392 4.91722 17.7089 4.77266C17.6786 4.62809 17.6158 4.49233 17.5252 4.37569C17.4346 4.25904 17.3186 4.16458 17.186 4.09949C17.0534 4.03439 16.9077 4.00037 16.76 4C16.31 4 15.93 4.3 15.82 4.73L15 8H11L11.7 5.21C11.7362 5.06679 11.7392 4.91722 11.7089 4.77266C11.6786 4.62809 11.6158 4.49233 11.5252 4.37569C11.4346 4.25904 11.3186 4.16458 11.186 4.09949C11.0534 4.03439 10.9077 4.00037 10.76 4C10.31 4 9.93 4.3 9.82 4.73L9 8H5.76C5.31 8 4.92 8.3 4.82 8.73L4.8 8.79C4.65 9.41 5.11 10 5.74 10H8.5L7.5 14H4.26C3.81 14 3.43 14.3 3.32 14.73L3.3 14.79C3.15 15.41 3.61 16 4.24 16H7L6.3 18.79C6.15 19.41 6.61 20 7.24 20C7.69 20 8.07 19.7 8.18 19.27L9 16H13L12.3 18.79C12.15 19.41 12.61 20 13.24 20C13.69 20 14.07 19.7 14.18 19.27L15 16H18.24C18.69 16 19.07 15.7 19.18 15.27L19.19 15.21C19.2254 15.0669 19.2278 14.9176 19.1972 14.7733C19.1666 14.6291 19.1037 14.4936 19.0132 14.3772C18.9228 14.2608 18.8071 14.1663 18.6749 14.101C18.5427 14.0357 18.3974 14.0011 18.25 14H15.5L16.5 10H19.74C20.19 10 20.58 9.7 20.68 9.27ZM13.5 14H9.5L10.5 10H14.5L13.5 14Z" fill="black"/>
</g>
</svg>
