<svg width="28" height="28" viewBox="0 0 28 28" fill="none" xmlns="http://www.w3.org/2000/svg">
<path d="M14.0001 0.666668C6.64008 0.666668 0.666748 6.64 0.666748 14C0.666748 21.36 6.64008 27.3333 14.0001 27.3333C21.3601 27.3333 27.3334 21.36 27.3334 14C27.3334 6.64 21.3601 0.666668 14.0001 0.666668ZM14.0001 6C16.5734 6 18.6667 8.09333 18.6667 10.6667C18.6667 13.24 16.5734 15.3333 14.0001 15.3333C11.4267 15.3333 9.33341 13.24 9.33341 10.6667C9.33341 8.09333 11.4267 6 14.0001 6ZM14.0001 24.6667C11.2934 24.6667 8.09342 23.5733 5.81342 20.8267C8.14889 18.9943 11.0316 17.9984 14.0001 17.9984C16.9686 17.9984 19.8513 18.9943 22.1867 20.8267C19.9067 23.5733 16.7067 24.6667 14.0001 24.6667Z" fill="black"/>
</svg>
